<svg width="21" height="20" viewBox="0 0 21 20" fill="none" xmlns="http://www.w3.org/2000/svg">
<path d="M10.6291 6.66525C8.79294 6.66525 7.29446 8.16376 7.29446 10C7.29446 11.8362 8.79294 13.3348 10.6291 13.3348C12.4654 13.3348 13.9638 11.8362 13.9638 10C13.9638 8.16376 12.4654 6.66525 10.6291 6.66525ZM20.6307 10C20.6307 8.61907 20.6432 7.25064 20.5657 5.87221C20.4881 4.27113 20.1229 2.85017 18.9521 1.67938C17.7788 0.506085 16.3604 0.14334 14.7594 0.065788C13.3785 -0.0117644 12.0101 0.000744113 10.6316 0.000744113C9.25074 0.000744113 7.88234 -0.0117644 6.50394 0.065788C4.90289 0.14334 3.48195 0.508587 2.31118 1.67938C1.13791 2.85267 0.775174 4.27113 0.697623 5.87221C0.620072 7.25314 0.63258 8.62157 0.63258 10C0.63258 11.3784 0.620072 12.7494 0.697623 14.1278C0.775174 15.7289 1.14041 17.1498 2.31118 18.3206C3.48445 19.4939 4.90289 19.8567 6.50394 19.9342C7.88485 20.0118 9.25324 19.9993 10.6316 19.9993C12.0126 19.9993 13.381 20.0118 14.7594 19.9342C16.3604 19.8567 17.7813 19.4914 18.9521 18.3206C20.1254 17.1473 20.4881 15.7289 20.5657 14.1278C20.6457 12.7494 20.6307 11.3809 20.6307 10ZM10.6291 15.131C7.78978 15.131 5.49828 12.8394 5.49828 10C5.49828 7.16058 7.78978 4.86903 10.6291 4.86903C13.4685 4.86903 15.76 7.16058 15.76 10C15.76 12.8394 13.4685 15.131 10.6291 15.131ZM15.9702 5.8572C15.3072 5.8572 14.7719 5.32184 14.7719 4.65889C14.7719 3.99594 15.3072 3.46058 15.9702 3.46058C16.6331 3.46058 17.1684 3.99594 17.1684 4.65889C17.1686 4.81631 17.1378 4.97222 17.0776 5.1177C17.0175 5.26317 16.9292 5.39535 16.8179 5.50666C16.7066 5.61798 16.5744 5.70624 16.429 5.76639C16.2835 5.82654 16.1276 5.8574 15.9702 5.8572Z" fill="white"/>
</svg>
