<svg width="23" height="13" viewBox="0 0 23 13" fill="none" xmlns="http://www.w3.org/2000/svg">
<path fill-rule="evenodd" clip-rule="evenodd" d="M11.3749 12.7631H12.7152C12.7152 12.7631 13.1173 12.6963 13.3183 12.496C13.5193 12.2957 13.5193 11.8951 13.5193 11.8951C13.5193 11.8951 13.5193 10.1592 14.3235 9.89213C15.1276 9.62507 16.1998 11.6281 17.272 12.3625C18.0762 12.9634 18.6793 12.8299 18.6793 12.8299L21.6278 12.7631C21.6278 12.7631 23.1691 12.6963 22.432 11.4278C22.365 11.361 22.0299 10.5598 20.2206 8.89063C18.3442 7.15469 18.6123 7.48853 20.8237 4.48402C22.1639 2.68131 22.7 1.61304 22.566 1.07891C22.432 0.611538 21.4268 0.745072 21.4268 0.745072H18.0762C18.0762 0.745072 17.8081 0.678305 17.6741 0.811839C17.4731 0.945373 17.406 1.14567 17.406 1.14567C17.406 1.14567 16.8699 2.54778 16.1998 3.74958C14.7255 6.21995 14.1224 6.35349 13.9214 6.21996C13.3853 5.88612 13.5193 4.75108 13.5193 4.01665C13.5193 1.61304 13.9214 0.611538 12.7822 0.34447C12.4471 0.277704 12.1791 0.210938 11.2409 0.210938C10.0347 0.210938 9.0295 0.210937 8.4934 0.478005C8.09132 0.678305 7.82327 1.07891 8.02431 1.07891C8.22535 1.07891 8.76145 1.21244 9.0295 1.54627C9.29755 2.14718 9.29755 3.14868 9.29755 3.14868C9.29755 3.14868 9.49858 6.01965 8.82846 6.35349C8.35937 6.62056 7.75626 6.08642 6.41601 3.81635C5.74589 2.68131 5.20979 1.34597 5.20979 1.34597C5.20979 1.34597 5.14278 1.07891 4.94174 0.945373C4.7407 0.81184 4.40564 0.745072 4.40564 0.745072H1.25606C1.25606 0.745072 0.786971 0.745073 0.585934 0.945373C0.451909 1.14567 0.585934 1.47951 0.585934 1.47951C0.585934 1.47951 3.06539 7.22146 5.87991 10.1592C8.4934 12.9634 11.3749 12.7631 11.3749 12.7631Z" fill="white"/>
</svg>
