<svg width="24" height="16" viewBox="0 0 24 16" fill="none" xmlns="http://www.w3.org/2000/svg">
<path d="M23.3064 2.57195C23.1746 2.09433 22.9161 1.65878 22.5569 1.30888C22.1976 0.958973 21.7502 0.706991 21.2594 0.578147C19.4528 0.105469 12.2108 0.105469 12.2108 0.105469C12.2108 0.105469 4.96877 0.105469 3.16215 0.575633C2.67113 0.704058 2.22349 0.955901 1.86418 1.30587C1.50488 1.65584 1.24655 2.09161 1.11515 2.56943C0.631836 4.3294 0.631836 8.00021 0.631836 8.00021C0.631836 8.00021 0.631836 11.671 1.11515 13.4285C1.38137 14.399 2.16708 15.1633 3.16215 15.4223C4.96877 15.8949 12.2108 15.8949 12.2108 15.8949C12.2108 15.8949 19.4528 15.8949 21.2594 15.4223C22.2571 15.1633 23.0402 14.399 23.3064 13.4285C23.7897 11.671 23.7897 8.00021 23.7897 8.00021C23.7897 8.00021 23.7897 4.3294 23.3064 2.57195ZM9.9105 11.3693V4.63111L15.9067 7.97506L9.9105 11.3693Z" fill="white"/>
</svg>
